<mxfile host="app.diagrams.net" modified="2024-06-19T13:56:12.196Z" agent="Mozilla/5.0 (Macintosh; Intel Mac OS X 10_15_7) AppleWebKit/537.36 (KHTML, like Gecko) Chrome/126.0.0.0 Safari/537.36" etag="G0nAWNQmCsKBveBE5IAG" version="24.5.5" type="github">
  <diagram name="Version-1" id="Y2WjuvX7hO9Vn0jHDt_I">
    <mxGraphModel dx="1222" dy="825" grid="0" gridSize="10" guides="1" tooltips="1" connect="1" arrows="1" fold="1" page="1" pageScale="1" pageWidth="1400" pageHeight="850" math="0" shadow="0">
      <root>
        <mxCell id="0" />
        <mxCell id="1" parent="0" />
        <mxCell id="DaBoR0gVyzuO1eZjZUi0-1" style="edgeStyle=orthogonalEdgeStyle;rounded=0;orthogonalLoop=1;jettySize=auto;html=1;exitX=0.5;exitY=1;exitDx=0;exitDy=0;entryX=0.5;entryY=0;entryDx=0;entryDy=0;strokeColor=#FF0000;strokeWidth=2;" edge="1" parent="1" source="DaBoR0gVyzuO1eZjZUi0-2" target="DaBoR0gVyzuO1eZjZUi0-31">
          <mxGeometry relative="1" as="geometry" />
        </mxCell>
        <mxCell id="DaBoR0gVyzuO1eZjZUi0-2" value="&lt;font style=&quot;font-size: 14px;&quot;&gt;&amp;lt;FeedLoader&amp;gt;&lt;/font&gt;" style="rounded=0;whiteSpace=wrap;html=1;fillColor=none;strokeColor=#FF0000;strokeWidth=4;fontSize=14;fontColor=#FF0000;" vertex="1" parent="1">
          <mxGeometry x="785" y="258" width="120" height="39" as="geometry" />
        </mxCell>
        <mxCell id="DaBoR0gVyzuO1eZjZUi0-3" style="edgeStyle=orthogonalEdgeStyle;rounded=0;orthogonalLoop=1;jettySize=auto;html=1;entryX=1;entryY=0.5;entryDx=0;entryDy=0;strokeColor=#D70C70;strokeWidth=2;endArrow=block;endFill=0;dashed=1;" edge="1" parent="1" source="DaBoR0gVyzuO1eZjZUi0-8" target="DaBoR0gVyzuO1eZjZUi0-2">
          <mxGeometry relative="1" as="geometry" />
        </mxCell>
        <mxCell id="DaBoR0gVyzuO1eZjZUi0-4" style="edgeStyle=orthogonalEdgeStyle;rounded=0;orthogonalLoop=1;jettySize=auto;html=1;exitX=0;exitY=0.75;exitDx=0;exitDy=0;entryX=1;entryY=0.5;entryDx=0;entryDy=0;strokeColor=#D70C70;strokeWidth=2;" edge="1" parent="1" source="DaBoR0gVyzuO1eZjZUi0-8" target="DaBoR0gVyzuO1eZjZUi0-31">
          <mxGeometry relative="1" as="geometry">
            <Array as="points">
              <mxPoint x="1005" y="289" />
              <mxPoint x="1005" y="377" />
            </Array>
          </mxGeometry>
        </mxCell>
        <mxCell id="DaBoR0gVyzuO1eZjZUi0-5" style="edgeStyle=orthogonalEdgeStyle;rounded=0;orthogonalLoop=1;jettySize=auto;html=1;entryX=0.5;entryY=0;entryDx=0;entryDy=0;strokeColor=#D70C70;strokeWidth=2;" edge="1" parent="1" source="DaBoR0gVyzuO1eZjZUi0-8" target="DaBoR0gVyzuO1eZjZUi0-38">
          <mxGeometry relative="1" as="geometry" />
        </mxCell>
        <mxCell id="DaBoR0gVyzuO1eZjZUi0-6" style="edgeStyle=orthogonalEdgeStyle;rounded=0;orthogonalLoop=1;jettySize=auto;html=1;exitX=1;exitY=0.5;exitDx=0;exitDy=0;entryX=0;entryY=0.5;entryDx=0;entryDy=0;strokeColor=#D70C70;strokeWidth=2;" edge="1" parent="1" source="DaBoR0gVyzuO1eZjZUi0-8" target="DaBoR0gVyzuO1eZjZUi0-27">
          <mxGeometry relative="1" as="geometry" />
        </mxCell>
        <mxCell id="DaBoR0gVyzuO1eZjZUi0-7" style="edgeStyle=orthogonalEdgeStyle;rounded=0;orthogonalLoop=1;jettySize=auto;html=1;exitX=1;exitY=0.75;exitDx=0;exitDy=0;entryX=0;entryY=0.5;entryDx=0;entryDy=0;strokeColor=#D70C70;strokeWidth=2;" edge="1" parent="1" source="DaBoR0gVyzuO1eZjZUi0-8" target="DaBoR0gVyzuO1eZjZUi0-29">
          <mxGeometry relative="1" as="geometry" />
        </mxCell>
        <mxCell id="DaBoR0gVyzuO1eZjZUi0-8" value="&lt;font style=&quot;font-size: 14px;&quot;&gt;LocalFeedLoader&lt;/font&gt;" style="rounded=0;whiteSpace=wrap;html=1;fillColor=none;strokeColor=#D70C70;strokeWidth=4;fontColor=#D70C70;fontSize=14;" vertex="1" parent="1">
          <mxGeometry x="1029" y="254.5" width="159" height="46" as="geometry" />
        </mxCell>
        <mxCell id="DaBoR0gVyzuO1eZjZUi0-9" style="edgeStyle=orthogonalEdgeStyle;rounded=0;orthogonalLoop=1;jettySize=auto;html=1;entryX=0.5;entryY=0;entryDx=0;entryDy=0;strokeColor=#1EA3FC;strokeWidth=2;" edge="1" parent="1" source="DaBoR0gVyzuO1eZjZUi0-10" target="DaBoR0gVyzuO1eZjZUi0-25">
          <mxGeometry relative="1" as="geometry" />
        </mxCell>
        <mxCell id="DaBoR0gVyzuO1eZjZUi0-10" value="&lt;font style=&quot;font-size: 16px;&quot;&gt;FeedItemsMapper&lt;/font&gt;" style="rounded=0;whiteSpace=wrap;html=1;fillColor=none;strokeColor=#1EA3FC;strokeWidth=4;fontColor=#1EA3FC;fontSize=16;" vertex="1" parent="1">
          <mxGeometry x="250" y="257" width="189" height="60" as="geometry" />
        </mxCell>
        <mxCell id="DaBoR0gVyzuO1eZjZUi0-11" style="edgeStyle=orthogonalEdgeStyle;rounded=0;orthogonalLoop=1;jettySize=auto;html=1;exitX=0.5;exitY=1;exitDx=0;exitDy=0;strokeColor=#1EA3FC;strokeWidth=2;" edge="1" parent="1" source="DaBoR0gVyzuO1eZjZUi0-16">
          <mxGeometry relative="1" as="geometry">
            <mxPoint x="582" y="442" as="targetPoint" />
            <mxPoint x="582" y="317" as="sourcePoint" />
          </mxGeometry>
        </mxCell>
        <mxCell id="DaBoR0gVyzuO1eZjZUi0-12" style="edgeStyle=orthogonalEdgeStyle;rounded=0;orthogonalLoop=1;jettySize=auto;html=1;strokeColor=#1EA3FC;strokeWidth=2;" edge="1" parent="1" source="DaBoR0gVyzuO1eZjZUi0-16">
          <mxGeometry relative="1" as="geometry">
            <mxPoint x="441.41176470588243" y="277.5" as="targetPoint" />
          </mxGeometry>
        </mxCell>
        <mxCell id="DaBoR0gVyzuO1eZjZUi0-13" style="edgeStyle=orthogonalEdgeStyle;rounded=0;orthogonalLoop=1;jettySize=auto;html=1;exitX=0.25;exitY=1;exitDx=0;exitDy=0;entryX=1;entryY=0.5;entryDx=0;entryDy=0;strokeColor=#1EA3FC;strokeWidth=2;" edge="1" parent="1" source="DaBoR0gVyzuO1eZjZUi0-16" target="DaBoR0gVyzuO1eZjZUi0-25">
          <mxGeometry relative="1" as="geometry" />
        </mxCell>
        <mxCell id="DaBoR0gVyzuO1eZjZUi0-14" style="edgeStyle=orthogonalEdgeStyle;rounded=0;orthogonalLoop=1;jettySize=auto;html=1;entryX=0;entryY=0.5;entryDx=0;entryDy=0;strokeColor=#1EA3FC;strokeWidth=2;dashed=1;endArrow=block;endFill=0;" edge="1" parent="1" source="DaBoR0gVyzuO1eZjZUi0-16" target="DaBoR0gVyzuO1eZjZUi0-2">
          <mxGeometry relative="1" as="geometry" />
        </mxCell>
        <mxCell id="DaBoR0gVyzuO1eZjZUi0-15" style="edgeStyle=orthogonalEdgeStyle;rounded=0;orthogonalLoop=1;jettySize=auto;html=1;exitX=1;exitY=0.75;exitDx=0;exitDy=0;entryX=0;entryY=0.5;entryDx=0;entryDy=0;strokeColor=#1EA3FC;strokeWidth=2;" edge="1" parent="1" source="DaBoR0gVyzuO1eZjZUi0-16" target="DaBoR0gVyzuO1eZjZUi0-31">
          <mxGeometry relative="1" as="geometry">
            <Array as="points">
              <mxPoint x="695" y="287" />
              <mxPoint x="695" y="377" />
            </Array>
          </mxGeometry>
        </mxCell>
        <mxCell id="DaBoR0gVyzuO1eZjZUi0-16" value="&lt;font style=&quot;font-size: 16px;&quot;&gt;RemoteFeedLoader&lt;/font&gt;" style="rounded=0;whiteSpace=wrap;html=1;fillColor=none;strokeColor=#1EA3FC;strokeWidth=4;fontColor=#1EA3FC;fontSize=16;" vertex="1" parent="1">
          <mxGeometry x="490" y="258" width="184" height="39" as="geometry" />
        </mxCell>
        <mxCell id="DaBoR0gVyzuO1eZjZUi0-17" value="&lt;font style=&quot;font-size: 16px;&quot;&gt;&amp;lt;HTTPClient&amp;gt;&lt;/font&gt;" style="rounded=0;whiteSpace=wrap;html=1;fillColor=none;strokeColor=#1EA3FC;strokeWidth=4;fontColor=#1EA3FC;fontSize=16;" vertex="1" parent="1">
          <mxGeometry x="485" y="446" width="189" height="39" as="geometry" />
        </mxCell>
        <mxCell id="DaBoR0gVyzuO1eZjZUi0-18" value="&lt;font style=&quot;font-size: 14px;&quot;&gt;Feed&lt;br style=&quot;font-size: 14px;&quot;&gt;Backend&lt;/font&gt;" style="ellipse;shape=cloud;whiteSpace=wrap;html=1;fillColor=#1ea3fc;fontColor=#000000;strokeColor=#001DBC;fontSize=14;" vertex="1" parent="1">
          <mxGeometry x="55" y="426" width="120" height="80" as="geometry" />
        </mxCell>
        <mxCell id="DaBoR0gVyzuO1eZjZUi0-19" style="edgeStyle=orthogonalEdgeStyle;rounded=0;orthogonalLoop=1;jettySize=auto;html=1;exitX=1;exitY=0.5;exitDx=0;exitDy=0;entryX=0;entryY=0.5;entryDx=0;entryDy=0;strokeWidth=2;endArrow=block;endFill=0;dashed=1;strokeColor=#1EA3FC;" edge="1" parent="1" source="DaBoR0gVyzuO1eZjZUi0-21" target="DaBoR0gVyzuO1eZjZUi0-17">
          <mxGeometry relative="1" as="geometry" />
        </mxCell>
        <mxCell id="DaBoR0gVyzuO1eZjZUi0-20" style="edgeStyle=orthogonalEdgeStyle;rounded=0;orthogonalLoop=1;jettySize=auto;html=1;strokeColor=#1EA3FC;strokeWidth=2;" edge="1" parent="1" source="DaBoR0gVyzuO1eZjZUi0-21" target="DaBoR0gVyzuO1eZjZUi0-18">
          <mxGeometry relative="1" as="geometry" />
        </mxCell>
        <mxCell id="DaBoR0gVyzuO1eZjZUi0-21" value="&lt;span style=&quot;font-family: Helvetica; font-size: 16px; font-style: normal; font-variant-ligatures: normal; font-variant-caps: normal; font-weight: 400; letter-spacing: normal; orphans: 2; text-align: center; text-indent: 0px; text-transform: none; widows: 2; word-spacing: 0px; -webkit-text-stroke-width: 0px; background-color: rgb(251, 251, 251); text-decoration-thickness: initial; text-decoration-style: initial; text-decoration-color: initial; float: none; display: inline !important;&quot;&gt;URLSession&lt;br&gt;HTTPClient&lt;br&gt;&lt;/span&gt;" style="rounded=0;whiteSpace=wrap;html=1;fillColor=none;strokeColor=#1EA3FC;strokeWidth=4;fontColor=#1EA3FC;" vertex="1" parent="1">
          <mxGeometry x="250" y="436" width="189" height="60" as="geometry" />
        </mxCell>
        <mxCell id="DaBoR0gVyzuO1eZjZUi0-22" value="" style="rounded=0;whiteSpace=wrap;html=1;fillColor=none;strokeWidth=4;strokeColor=#1EA3FC;" vertex="1" parent="1">
          <mxGeometry x="223" y="236.5" width="499" height="405.5" as="geometry" />
        </mxCell>
        <mxCell id="DaBoR0gVyzuO1eZjZUi0-23" value="Feed API module" style="text;html=1;strokeColor=none;fillColor=none;align=center;verticalAlign=middle;whiteSpace=wrap;rounded=0;strokeWidth=0;fontColor=#006EAF;fontStyle=0;fontSize=16;" vertex="1" parent="1">
          <mxGeometry x="234" y="204" width="127" height="30" as="geometry" />
        </mxCell>
        <mxCell id="DaBoR0gVyzuO1eZjZUi0-24" value="&lt;font style=&quot;font-size: 14px;&quot;&gt;Internal&lt;/font&gt;" style="text;html=1;strokeColor=none;fillColor=none;align=center;verticalAlign=middle;whiteSpace=wrap;rounded=0;labelPosition=center;verticalLabelPosition=middle;fontColor=#1EA3FC;" vertex="1" parent="1">
          <mxGeometry x="379" y="257" width="60" height="30" as="geometry" />
        </mxCell>
        <mxCell id="DaBoR0gVyzuO1eZjZUi0-25" value="RemoteFeedItem" style="rounded=0;whiteSpace=wrap;html=1;fillColor=none;strokeColor=#1EA3FC;strokeWidth=4;fontColor=#1EA3FC;fontSize=16;" vertex="1" parent="1">
          <mxGeometry x="249" y="347" width="189" height="60" as="geometry" />
        </mxCell>
        <mxCell id="DaBoR0gVyzuO1eZjZUi0-26" value="&lt;font style=&quot;font-size: 14px;&quot;&gt;Internal&lt;/font&gt;" style="text;html=1;strokeColor=none;fillColor=none;align=center;verticalAlign=middle;whiteSpace=wrap;rounded=0;labelPosition=center;verticalLabelPosition=middle;fontColor=#1EA3FC;" vertex="1" parent="1">
          <mxGeometry x="378" y="347" width="60" height="30" as="geometry" />
        </mxCell>
        <mxCell id="DaBoR0gVyzuO1eZjZUi0-27" value="&lt;font style=&quot;font-size: 14px;&quot;&gt;LocalFeedImage&lt;/font&gt;" style="rounded=0;whiteSpace=wrap;html=1;fillColor=none;strokeColor=#D70C70;strokeWidth=4;fontColor=#D70C70;fontSize=14;" vertex="1" parent="1">
          <mxGeometry x="1302" y="258" width="159" height="39" as="geometry" />
        </mxCell>
        <mxCell id="DaBoR0gVyzuO1eZjZUi0-28" style="edgeStyle=orthogonalEdgeStyle;rounded=0;orthogonalLoop=1;jettySize=auto;html=1;entryX=0.5;entryY=1;entryDx=0;entryDy=0;strokeColor=#D70C70;strokeWidth=2;" edge="1" parent="1" source="DaBoR0gVyzuO1eZjZUi0-29" target="DaBoR0gVyzuO1eZjZUi0-27">
          <mxGeometry relative="1" as="geometry" />
        </mxCell>
        <mxCell id="DaBoR0gVyzuO1eZjZUi0-29" value="&lt;font style=&quot;font-size: 14px;&quot;&gt;&amp;lt;FeedStore&amp;gt;&lt;/font&gt;" style="rounded=0;whiteSpace=wrap;html=1;fillColor=none;strokeColor=#D70C70;strokeWidth=4;fontColor=#D70C70;fontSize=14;" vertex="1" parent="1">
          <mxGeometry x="1302" y="357.5" width="159" height="39" as="geometry" />
        </mxCell>
        <mxCell id="DaBoR0gVyzuO1eZjZUi0-30" value="Feed Cache module" style="text;html=1;strokeColor=none;fillColor=none;align=center;verticalAlign=middle;whiteSpace=wrap;rounded=0;strokeWidth=0;fontColor=#D70C70;fontStyle=0;fontSize=16;" vertex="1" parent="1">
          <mxGeometry x="1327" y="204" width="158" height="30" as="geometry" />
        </mxCell>
        <mxCell id="DaBoR0gVyzuO1eZjZUi0-31" value="&lt;font style=&quot;font-size: 14px;&quot;&gt;FeedImagee&lt;/font&gt;" style="rounded=0;whiteSpace=wrap;html=1;fillColor=none;strokeColor=#FF0000;strokeWidth=4;fontSize=14;fontColor=#FF0000;" vertex="1" parent="1">
          <mxGeometry x="785" y="357.5" width="120" height="39" as="geometry" />
        </mxCell>
        <mxCell id="DaBoR0gVyzuO1eZjZUi0-32" value="" style="rounded=0;whiteSpace=wrap;html=1;fillColor=none;strokeWidth=4;strokeColor=#ff0000;" vertex="1" parent="1">
          <mxGeometry x="741" y="236" width="210" height="405" as="geometry" />
        </mxCell>
        <mxCell id="DaBoR0gVyzuO1eZjZUi0-33" style="edgeStyle=orthogonalEdgeStyle;rounded=0;orthogonalLoop=1;jettySize=auto;html=1;entryX=0.5;entryY=1;entryDx=0;entryDy=0;strokeColor=#D70C70;strokeWidth=2;endArrow=block;endFill=0;dashed=1;" edge="1" parent="1" source="DaBoR0gVyzuO1eZjZUi0-36" target="DaBoR0gVyzuO1eZjZUi0-29">
          <mxGeometry relative="1" as="geometry" />
        </mxCell>
        <mxCell id="DaBoR0gVyzuO1eZjZUi0-34" style="edgeStyle=orthogonalEdgeStyle;rounded=0;orthogonalLoop=1;jettySize=auto;html=1;exitX=0.5;exitY=1;exitDx=0;exitDy=0;entryX=0.5;entryY=0;entryDx=0;entryDy=0;strokeColor=#D70C70;strokeWidth=2;endArrow=block;endFill=0;dashed=1;" edge="1" parent="1" source="DaBoR0gVyzuO1eZjZUi0-36" target="DaBoR0gVyzuO1eZjZUi0-49">
          <mxGeometry relative="1" as="geometry" />
        </mxCell>
        <mxCell id="DaBoR0gVyzuO1eZjZUi0-35" style="edgeStyle=orthogonalEdgeStyle;rounded=0;orthogonalLoop=1;jettySize=auto;html=1;exitX=1;exitY=0.25;exitDx=0;exitDy=0;entryX=1;entryY=0.5;entryDx=0;entryDy=0;strokeColor=#D70C70;strokeWidth=2;" edge="1" parent="1" source="DaBoR0gVyzuO1eZjZUi0-36" target="DaBoR0gVyzuO1eZjZUi0-27">
          <mxGeometry relative="1" as="geometry" />
        </mxCell>
        <mxCell id="DaBoR0gVyzuO1eZjZUi0-36" value="&lt;font style=&quot;font-size: 14px;&quot;&gt;CoreDataFeedStore&lt;br&gt;&lt;/font&gt;" style="rounded=0;whiteSpace=wrap;html=1;fillColor=none;strokeColor=#D70C70;strokeWidth=4;fontSize=14;gradientColor=#b3b3b3;fontColor=#D70C70;" vertex="1" parent="1">
          <mxGeometry x="1302" y="457" width="159" height="39" as="geometry" />
        </mxCell>
        <mxCell id="DaBoR0gVyzuO1eZjZUi0-37" value="" style="rounded=0;whiteSpace=wrap;html=1;fillColor=none;strokeWidth=4;strokeColor=#D70C70;" vertex="1" parent="1">
          <mxGeometry x="970" y="236.5" width="528" height="402.5" as="geometry" />
        </mxCell>
        <mxCell id="DaBoR0gVyzuO1eZjZUi0-38" value="&lt;font style=&quot;font-size: 14px;&quot;&gt;FeedCachePolicy&lt;/font&gt;" style="rounded=0;whiteSpace=wrap;html=1;fillColor=none;strokeColor=#D70C70;strokeWidth=4;fontColor=#D70C70;fontSize=14;" vertex="1" parent="1">
          <mxGeometry x="1029" y="347" width="159" height="60" as="geometry" />
        </mxCell>
        <mxCell id="DaBoR0gVyzuO1eZjZUi0-39" value="&lt;font style=&quot;font-size: 14px;&quot;&gt;Internal&lt;/font&gt;" style="text;html=1;strokeColor=none;fillColor=none;align=center;verticalAlign=middle;whiteSpace=wrap;rounded=0;labelPosition=center;verticalLabelPosition=middle;fontColor=#D70C70;" vertex="1" parent="1">
          <mxGeometry x="1128" y="350" width="60" height="30" as="geometry" />
        </mxCell>
        <mxCell id="DaBoR0gVyzuO1eZjZUi0-40" value="&lt;font color=&quot;#ffffff&quot; style=&quot;font-size: 18px;&quot;&gt;Core&lt;br&gt;Data&lt;/font&gt;" style="shape=cylinder3;whiteSpace=wrap;html=1;boundedLbl=1;backgroundOutline=1;size=15;strokeColor=#000000;gradientColor=none;fillColor=#D70C70;gradientDirection=north;strokeWidth=1;" vertex="1" parent="1">
          <mxGeometry x="1546" y="436.5" width="60" height="80" as="geometry" />
        </mxCell>
        <mxCell id="DaBoR0gVyzuO1eZjZUi0-41" style="edgeStyle=orthogonalEdgeStyle;rounded=0;orthogonalLoop=1;jettySize=auto;html=1;entryX=0.5;entryY=1;entryDx=0;entryDy=0;strokeColor=#1EA3FC;strokeWidth=2;" edge="1" parent="1" source="DaBoR0gVyzuO1eZjZUi0-43" target="DaBoR0gVyzuO1eZjZUi0-17">
          <mxGeometry relative="1" as="geometry" />
        </mxCell>
        <mxCell id="DaBoR0gVyzuO1eZjZUi0-42" style="edgeStyle=orthogonalEdgeStyle;rounded=0;orthogonalLoop=1;jettySize=auto;html=1;exitX=1;exitY=0.5;exitDx=0;exitDy=0;entryX=0;entryY=0.5;entryDx=0;entryDy=0;strokeColor=#1EA3FC;strokeWidth=2;dashed=1;endArrow=block;endFill=0;" edge="1" parent="1" source="DaBoR0gVyzuO1eZjZUi0-43" target="DaBoR0gVyzuO1eZjZUi0-45">
          <mxGeometry relative="1" as="geometry" />
        </mxCell>
        <mxCell id="DaBoR0gVyzuO1eZjZUi0-43" value="&lt;font style=&quot;font-size: 16px;&quot;&gt;RemoteFeedImageDataLoader&lt;/font&gt;" style="rounded=0;whiteSpace=wrap;html=1;fillColor=none;strokeColor=#1EA3FC;strokeWidth=4;fontColor=#1EA3FC;fontSize=16;" vertex="1" parent="1">
          <mxGeometry x="451.5" y="560" width="256" height="39" as="geometry" />
        </mxCell>
        <mxCell id="DaBoR0gVyzuO1eZjZUi0-44" value="Feed Feature module" style="text;html=1;strokeColor=none;fillColor=none;align=center;verticalAlign=middle;whiteSpace=wrap;rounded=0;strokeWidth=0;fontColor=#FF0000;fontStyle=0;fontSize=16;" vertex="1" parent="1">
          <mxGeometry x="741" y="205" width="158" height="30" as="geometry" />
        </mxCell>
        <mxCell id="DaBoR0gVyzuO1eZjZUi0-45" value="&lt;font style=&quot;font-size: 14px;&quot;&gt;&amp;lt;FeedImageDataLoader&amp;gt;&lt;/font&gt;" style="rounded=0;whiteSpace=wrap;html=1;fillColor=none;strokeColor=#FF0000;strokeWidth=4;fontSize=14;fontColor=#FF0000;" vertex="1" parent="1">
          <mxGeometry x="753.5" y="560" width="183" height="39" as="geometry" />
        </mxCell>
        <mxCell id="DaBoR0gVyzuO1eZjZUi0-46" style="edgeStyle=orthogonalEdgeStyle;rounded=0;orthogonalLoop=1;jettySize=auto;html=1;entryX=1;entryY=0.5;entryDx=0;entryDy=0;strokeColor=#D70C70;strokeWidth=2;endArrow=block;endFill=0;dashed=1;" edge="1" parent="1" source="DaBoR0gVyzuO1eZjZUi0-48" target="DaBoR0gVyzuO1eZjZUi0-45">
          <mxGeometry relative="1" as="geometry" />
        </mxCell>
        <mxCell id="DaBoR0gVyzuO1eZjZUi0-47" style="edgeStyle=orthogonalEdgeStyle;rounded=0;orthogonalLoop=1;jettySize=auto;html=1;entryX=0;entryY=0.5;entryDx=0;entryDy=0;strokeColor=#D70C70;strokeWidth=2;" edge="1" parent="1" source="DaBoR0gVyzuO1eZjZUi0-48" target="DaBoR0gVyzuO1eZjZUi0-49">
          <mxGeometry relative="1" as="geometry" />
        </mxCell>
        <mxCell id="DaBoR0gVyzuO1eZjZUi0-48" value="LocalFeedImageDataLoader" style="rounded=0;whiteSpace=wrap;html=1;fillColor=none;strokeColor=#D70C70;strokeWidth=4;fontColor=#D70C70;fontSize=14;" vertex="1" parent="1">
          <mxGeometry x="1006.5" y="556.5" width="204" height="46" as="geometry" />
        </mxCell>
        <mxCell id="DaBoR0gVyzuO1eZjZUi0-49" value="&lt;font style=&quot;font-size: 14px;&quot;&gt;&amp;lt;FeedImageDataStore&amp;gt;&lt;br&gt;&lt;/font&gt;" style="rounded=0;whiteSpace=wrap;html=1;fillColor=none;strokeColor=#D70C70;strokeWidth=4;fontSize=14;gradientColor=#b3b3b3;fontColor=#D70C70;" vertex="1" parent="1">
          <mxGeometry x="1294.5" y="560" width="174" height="39" as="geometry" />
        </mxCell>
        <mxCell id="DaBoR0gVyzuO1eZjZUi0-50" style="edgeStyle=orthogonalEdgeStyle;rounded=0;orthogonalLoop=1;jettySize=auto;html=1;exitX=1;exitY=0.5;exitDx=0;exitDy=0;entryX=0;entryY=0.5;entryDx=0;entryDy=0;entryPerimeter=0;strokeColor=#D70C70;strokeWidth=2;" edge="1" parent="1" source="DaBoR0gVyzuO1eZjZUi0-36" target="DaBoR0gVyzuO1eZjZUi0-40">
          <mxGeometry relative="1" as="geometry" />
        </mxCell>
      </root>
    </mxGraphModel>
  </diagram>
</mxfile>
